/* XPM */
static char * pctv_stop_ico_xpm[] = {
"20 20 2 1",
" 	c None",
".	c #000000",
"                    ",
" .................. ",
" .................. ",
" .................. ",
" .................. ",
" .................. ",
" .................. ",
" .................. ",
" .................. ",
" .................. ",
" .................. ",
" .................. ",
" .................. ",
" .................. ",
" .................. ",
" .................. ",
" .................. ",
" .................. ",
" .................. ",
"                    "};
