/* XPM */
static char * pctv_chanselect_ico_xpm[] = {
"12 12 16 1",
" 	c None",
".	c #042DF7",
"+	c #0D3AF7",
"@	c #1A4DF7",
"#	c #2157F7",
"$	c #103EF7",
"%	c #306CF7",
"&	c #5197F7",
"*	c #61ADF7",
"=	c #61ABF7",
"-	c #7ECDF7",
";	c #89DAF7",
">	c #93E0F7",
",	c #9FE8F8",
"'	c #B0EFF9",
")	c #0D3BF7",
"    ....    ",
"  .+@##@+.  ",
" .$%&**&%$. ",
" +%=-;;-=%+ ",
".@&->,,>-&@.",
".#*;,'',;*#.",
".#*;,'',;*#.",
".@&->,,>-&@.",
" +%=-;;-=%+ ",
" .$%&**&%$. ",
"  .)@##@).  ",
"    ....    "};
