/* XPM */
static char * pctv_play_ico_xpm[] = {
"20 20 2 1",
" 	c None",
".	c #17AB1B",
".                   ",
"...                 ",
".....               ",
".......             ",
".........           ",
"...........         ",
".............       ",
"...............     ",
".................   ",
"................... ",
"....................",
"..................  ",
"................    ",
"..............      ",
"............        ",
"..........          ",
"........            ",
"......              ",
"....                ",
"..                  "};
