/* XPM */
static char * pctv_rec_ico_xpm[] = {
"20 20 2 1",
" 	c None",
".	c #FF0000",
"        ....        ",
"      ........      ",
"    ............    ",
"   ..............   ",
"  ................  ",
"  ................  ",
" .................. ",
" .................. ",
" .................. ",
" .................. ",
" .................. ",
" .................. ",
" .................. ",
" .................. ",
"  ................  ",
"  ................  ",
"   ..............   ",
"    ............    ",
"      ........      ",
"                    "};
